<svg xmlns="http://www.w3.org/2000/svg" width="55" height="30"><path d="M24.453 12.255c-4.133 0-6.661 3.668-6.661 7 0 3.56 2.289 7.061 7.109 7.061 4.879 0 6.83-4.14 6.83-7.12-.001-2.989-1.732-6.941-7.278-6.941zm.501 13.158c-3.018 0-4.443-3.036-4.443-6.254 0-2.858 1.379-6.038 3.982-6.038 3.016 0 4.468 3.294 4.468 6.228 0 2.935-.987 6.064-4.007 6.064zM52.635 24.276c-2.584 1.168-4.453.258-4.453-1.534v-8.142h4.303v-1.102h-4.303v-4.734c-.106-2.767-2.229-5.079-5.283-5.079-2.853 0-5.321 2.422-5.321 5.278 0 1.411.621 2.547 1.181 3.285-2.319.007-4.603 1.171-4.603 3.932 0 4.183 6.198 4.062 6.198 7.078 0 1.376-1.14 2.079-2.473 2.079-1.334 0-3.142-.364-3.226-3.038h-.836v3.249s1.927.756 3.864.756c2.101 0 4.847-.817 4.847-4.36 0-3.688-6.415-4.008-6.415-6.874 0-1.554 1.769-1.938 2.615-1.938 2.12 0 2.56 2.423 2.56 2.423h.701v-2.522s-.848-.488-2.022-.693c-1.085-.725-1.591-1.893-1.591-3.375 0-2.341 1.976-4.488 4.521-4.488 2.546 0 4.346 1.943 4.346 4.488 0 2.174-1.098 3.968-3.006 4.883l.165.755h1.547v7.829c0 2.697.831 3.886 3.01 3.886 2.317 0 3.898-1.221 3.898-1.221l-.224-.821zM9.422 5.248l-7.28-.001v.72c1.267 0 2.001.4 2.001 1.623v15.932c0 1.222-.734 1.623-2.001 1.623v.72h7.681v-.928h-.898c-1.003 0-1.853-.096-1.853-1.458v-17.067s.96-.156 1.796-.156c3.509 0 5.435 2.461 5.435 5.461 0 3.113-1.676 5.848-5.973 5.848v.629s.917.148 1.662.148c.93 0 7.375-.341 7.375-6.655.001-5.434-5.718-6.428-7.945-6.439z"/></svg>