<?xml version="1.0" encoding="utf-8"?>
<!-- Generator: Adobe Illustrator 16.0.0, SVG Export Plug-In . SVG Version: 6.00 Build 0)  -->
<!DOCTYPE svg PUBLIC "-//W3C//DTD SVG 1.1//EN" "http://www.w3.org/Graphics/SVG/1.1/DTD/svg11.dtd">
<svg version="1.1" id="Layer_1" xmlns="http://www.w3.org/2000/svg" xmlns:xlink="http://www.w3.org/1999/xlink" x="0px" y="0px"
	 width="55px" height="30px" viewBox="0 0 55 30" enable-background="new 0 0 55 30" xml:space="preserve">
<g>
	<path d="M24.453,12.255c-4.133,0-6.661,3.668-6.661,7c0,3.56,2.289,7.061,7.109,7.061c4.879,0,6.83-4.14,6.83-7.12
		C31.73,16.207,29.999,12.255,24.453,12.255z M24.954,25.413c-3.018,0-4.443-3.036-4.443-6.254c0-2.858,1.379-6.038,3.982-6.038
		c3.016,0,4.468,3.294,4.468,6.228C28.961,22.284,27.974,25.413,24.954,25.413z"/>
	<path d="M52.635,24.276c-2.584,1.168-4.453,0.258-4.453-1.534v-8.142h4.303v-1.102h-4.303V8.764
		c-0.106-2.767-2.229-5.079-5.283-5.079c-2.853,0-5.321,2.422-5.321,5.278c0,1.411,0.621,2.547,1.181,3.285
		c-2.319,0.007-4.603,1.171-4.603,3.932c0,4.183,6.198,4.062,6.198,7.078c0,1.376-1.14,2.079-2.473,2.079
		c-1.334,0-3.142-0.364-3.226-3.038h-0.836v3.249c0,0,1.927,0.756,3.864,0.756c2.101,0,4.847-0.817,4.847-4.36
		c0-3.688-6.415-4.008-6.415-6.874c0-1.554,1.769-1.938,2.615-1.938c2.12,0,2.56,2.423,2.56,2.423h0.701v-2.522
		c0,0-0.848-0.488-2.022-0.693c-1.085-0.725-1.591-1.893-1.591-3.375c0-2.341,1.976-4.488,4.521-4.488
		c2.546,0,4.346,1.943,4.346,4.488c0,2.174-1.098,3.968-3.006,4.883l0.165,0.755h1.547v7.829c0,2.697,0.831,3.886,3.01,3.886
		c2.317,0,3.898-1.221,3.898-1.221L52.635,24.276z"/>
	<path d="M9.422,5.248L9.422,5.248l-7.28-0.001c0,0,0,0.614,0,0.72c1.267,0,2.001,0.4,2.001,1.623c0,0.066,0,0.164,0,0.286v15.646
		c0,1.222-0.734,1.623-2.001,1.623v0.72h7.681v-0.928H8.925c-1.003,0-1.853-0.096-1.853-1.458c0-1.139,0-17.067,0-17.067
		s0.96-0.156,1.796-0.156c3.509,0,5.435,2.461,5.435,5.461c0,3.113-1.676,5.848-5.973,5.848v0.629c0,0,0.917,0.148,1.662,0.148
		c0.93,0,7.375-0.341,7.375-6.655C17.368,6.253,11.649,5.259,9.422,5.248z"/>
</g>
</svg>
